<svg id="Capa_1" enable-background="new 0 0 512 512" height="512" viewBox="0 0 512 512" width="512" xmlns="http://www.w3.org/2000/svg"><g><g><path d="m141.99 53.414c37.316-25.49 73.976-38.414 108.96-38.414 52.439 0 100.025 29.728 130.71 54.667 25.661 20.856 44.143 41.96 51.601 50.975-4.896 5.923-14.533 17.049-27.789 29.842-2.98 2.876-3.065 7.624-.188 10.605 1.472 1.525 3.433 2.292 5.397 2.292 1.875 0 3.752-.699 5.207-2.104 20.519-19.802 32.466-35.443 32.964-36.099 2.037-2.682 2.038-6.392.001-9.074-.899-1.184-22.427-29.327-57.451-57.85-46.799-38.11-95.366-58.254-140.452-58.254-38.059 0-77.565 13.804-117.421 41.027-3.42 2.336-4.299 7.003-1.963 10.424s7.005 4.298 10.424 1.963z"/><path d="m250.949 88.895c-17.504 0-31.744 14.24-31.744 31.744s14.24 31.744 31.744 31.744 31.744-14.24 31.744-31.744-14.24-31.744-31.744-31.744zm0 48.487c-9.233 0-16.744-7.511-16.744-16.744 0-9.232 7.511-16.744 16.744-16.744 9.232 0 16.744 7.511 16.744 16.744s-7.512 16.744-16.744 16.744z"/><path d="m452.98 355.19c4.143 0 7.5-3.358 7.5-7.5v-45.75c0-15.005-11.975-27.64-26.693-28.165-4.947-.179-9.717.927-13.95 3.172-1.751-13.48-12.745-23.903-26.466-24.393-5.006-.168-9.828.961-14.098 3.261-2.188-12.856-13.151-22.992-26.306-23.46-4.837-.174-9.533.887-13.708 3.049v-17.641c16.644-8.665 33.396-19.713 49.858-32.899 3.233-2.59 3.755-7.31 1.165-10.542-2.589-3.232-7.309-3.755-10.542-1.166-13.407 10.738-26.979 19.968-40.481 27.552v-18.978c0-11.972-7.626-22.428-18.184-26.436 5.314-10.708 8.084-22.497 8.084-34.654 0-43.125-35.085-78.21-78.21-78.21s-78.21 35.085-78.21 78.21 35.085 78.21 78.21 78.21c11.507 0 22.675-2.489 32.91-7.251v30.961c-11.058 2.455-21.378 3.718-33.024 3.718-52.395 0-99.934-29.744-130.597-54.665-25.659-20.854-44.141-41.958-51.6-50.973 6.922-8.369 23.332-27.144 46.153-46.443 3.163-2.674 3.559-7.407.884-10.569-2.674-3.163-7.407-3.559-10.569-.884-31.884 26.963-51.251 52.296-52.061 53.361-2.036 2.681-2.036 6.391 0 9.072.899 1.184 22.427 29.327 57.452 57.849 33.06 26.922 67.001 44.865 99.975 53.088-28.39 14.702-47.838 44.359-47.838 78.476 0 46.656 36.369 84.972 82.245 88.101 2.409 13.286 7.841 25.896 15.914 36.796l8.48 11.44c2.927 3.949 4.475 8.643 4.475 13.573v40c0 4.142 3.357 7.5 7.5 7.5h161.63c4.143 0 7.5-3.358 7.5-7.5v-46.78c0-1.869.229-3.732.676-5.529l6.791-27.135c1.748-7.002 2.634-14.208 2.634-21.416v-20.95c0-4.142-3.357-7.5-7.5-7.5s-7.5 3.358-7.5 7.5v20.95c0 5.985-.735 11.969-2.186 17.779l-6.792 27.137c-.745 2.99-1.123 6.073-1.123 9.164v39.28h-146.628v-32.5c0-8.172-2.567-15.955-7.425-22.506l-8.478-11.438c-6.209-8.385-10.536-17.989-12.728-28.129 44.403-4.602 79.143-42.239 79.143-87.839v-54.549c0-.007-.001-.013-.001-.02.005-3.471 1.384-6.71 3.885-9.123 2.502-2.416 5.79-3.671 9.288-3.553 6.747.241 12.236 6.151 12.236 13.175l-.001 54.069c0 4.142 3.357 7.5 7.5 7.5s7.5-3.358 7.5-7.5v-34.33c0-.006.001-.013.001-.019 0-3.476 1.377-6.72 3.877-9.135 2.503-2.417 5.797-3.688 9.297-3.561 6.747.241 12.236 6.155 12.236 13.185l-.005 33.859c0 4.142 3.357 7.5 7.5 7.5s7.5-3.358 7.5-7.5v-13.033c0-.032.005-.064.005-.097 0-3.483 1.379-6.731 3.881-9.146 2.5-2.413 5.792-3.668 9.291-3.548 6.743.241 12.229 6.151 12.229 13.175v45.75c-.001 4.145 3.357 7.503 7.499 7.503zm-265.24-234.55c0-34.854 28.356-63.21 63.21-63.21s63.21 28.356 63.21 63.21c0 12.1-3.398 23.741-9.843 33.856-4.462 1.198-8.562 3.509-11.989 6.815-3.674 3.546-6.231 7.913-7.515 12.702-10.109 6.441-21.753 9.838-33.862 9.838-34.855-.001-63.211-28.357-63.211-63.211zm63.209 267.262c-40.425 0-73.313-32.888-73.313-73.313-.006-40.454 32.952-73.361 73.395-73.311 40.387.045 73.231 32.913 73.231 73.311-.001 40.425-32.888 73.313-73.313 73.313zm47.911-147.465v-59.187c0-3.48 1.379-6.728 3.884-9.145 2.501-2.413 5.805-3.67 9.288-3.55 6.742.241 12.228 6.151 12.228 13.175l.002 83.673c-6.689-9.937-15.344-18.445-25.402-24.966z"/><path d="m297.528 291.672c0-6.321-2.462-12.263-6.931-16.732-4.47-4.469-10.411-6.931-16.732-6.931-6.32 0-12.263 2.462-16.731 6.932l-6.185 6.185-6.184-6.185c-9.227-9.227-24.238-9.226-33.464 0-4.469 4.469-6.931 10.412-6.931 16.732 0 6.321 2.461 12.263 6.93 16.732l6.185 6.185-6.185 6.185c-4.469 4.469-6.931 10.411-6.93 16.732 0 6.32 2.461 12.263 6.931 16.732s10.411 6.931 16.731 6.931 12.263-2.461 16.732-6.931l6.185-6.185 6.184 6.184c4.468 4.47 10.411 6.932 16.733 6.932 6.32 0 12.262-2.461 16.73-6.93 4.47-4.47 6.932-10.412 6.932-16.732 0-6.321-2.462-12.263-6.931-16.732l-6.186-6.186 6.185-6.185c4.47-4.47 6.932-10.412 6.932-16.733zm-29.026 28.221 11.489 11.489c1.636 1.636 2.537 3.811 2.537 6.125 0 2.313-.901 4.489-2.538 6.125-1.636 1.636-3.811 2.537-6.124 2.537-2.314 0-4.489-.9-6.125-2.537l-11.488-11.488c-1.465-1.464-3.385-2.197-5.304-2.197s-3.839.732-5.303 2.197l-11.488 11.488c-1.637 1.636-3.812 2.538-6.126 2.538-2.313 0-4.489-.901-6.125-2.537s-2.537-3.812-2.537-6.126c0-2.313.901-4.489 2.537-6.125l11.488-11.488c2.929-2.929 2.929-7.678 0-10.606l-11.488-11.488c-3.377-3.377-3.377-8.873 0-12.25 3.378-3.378 8.873-3.378 12.251 0l11.488 11.488c1.406 1.407 3.314 2.197 5.303 2.197s3.896-.79 5.304-2.197l11.488-11.489c1.636-1.636 3.811-2.538 6.124-2.538 2.314 0 4.489.901 6.126 2.538 1.636 1.636 2.537 3.811 2.537 6.125 0 2.313-.901 4.489-2.538 6.125l-11.488 11.489c-2.929 2.927-2.929 7.676 0 10.605z"/></g></g></svg>