<svg height="512" viewBox="0 0 64 64" width="512" xmlns="http://www.w3.org/2000/svg"><g id="outline"><path d="m31 21h2v3h-2z"/><path d="m37.293 17.293-2 2a1 1 0 0 0 0 1.414l2 2 1.414-1.414-1.293-1.293 1.293-1.293z"/><path d="m26.707 17.293-1.414 1.414 1.293 1.293-1.293 1.293 1.414 1.414 2-2a1 1 0 0 0 0-1.414z"/><path d="m43 7a5.006 5.006 0 0 0 -5-5h-12a5.006 5.006 0 0 0 -5 5v8.1a5 5 0 0 0 0 9.8v9.1a1 1 0 0 0 1 1h2.457l-.6 2h-4.857a5.006 5.006 0 0 0 -5 5v15a5.006 5.006 0 0 0 5 5h26a5.006 5.006 0 0 0 5-5v-15a5.006 5.006 0 0 0 -5-5h-4.856l-.6-2h2.456a1 1 0 0 0 1-1v-9.1a5 5 0 0 0 0-9.8zm-22 15.829a3 3 0 0 1 0-5.658zm1 16.171h1.257l-.227.758a2.458 2.458 0 0 0 .952 2.582 3.887 3.887 0 0 0 -.476.639l-1.506 2.466zm-6 3a3 3 0 0 1 3-3h1v9h-4zm4.431 18h-1.431a3 3 0 0 1 -3-3v-7h5a1 1 0 0 0 .854-.479l3.371-5.521a2.024 2.024 0 0 1 1.735-1 2.94 2.94 0 0 0 1.827 1.133 1.948 1.948 0 0 1 -.067 1.894zm15.469-19.033-.345.691a1 1 0 0 1 -1.7.153l-1.055-1.411a1.036 1.036 0 0 0 -1.6 0l-1.059 1.412a.975.975 0 0 1 -.889.4.987.987 0 0 1 -.8-.549l-.334-.663 1.782-3.553-1.79-.894-1.92 3.84c-.369.359-.729.5-.977.369a.477.477 0 0 1 -.25-.475l3-10.013a4.175 4.175 0 0 1 8.081.013l2.988 9.955a.587.587 0 0 1 -.352.569c-.315.151-.608-.086-.817-.341l-2.942-6.864-1.838.788zm-13.144 19.033 7.687-12.956a4 4 0 0 0 .361-3.226 2.983 2.983 0 0 0 .937-.807l.259-.344.258.344a2.991 2.991 0 0 0 .94.8 4.007 4.007 0 0 0 .362 3.24l7.684 12.949zm21.244-21h1a3 3 0 0 1 3 3v6h-4zm-3.042.713-.214-.713h1.256v6.445l-1.495-2.445a3.939 3.939 0 0 0 -.5-.673 2.548 2.548 0 0 0 .953-2.614zm1.188 9.808a1 1 0 0 0 .854.479h5v7a3 3 0 0 1 -3 3h-1.431l-8.286-13.964a1.956 1.956 0 0 1 -.071-1.9 2.939 2.939 0 0 0 1.828-1.136 2.034 2.034 0 0 1 1.747 1.02zm-1.146-16.521h-2.056l-.983-3.274a6.173 6.173 0 0 0 -11.919-.013l-.986 3.287h-2.056v-17.672a15.961 15.961 0 0 1 4.429-3.876 11.483 11.483 0 0 0 4.016 5.38 1 1 0 0 0 .555.168.982.982 0 0 0 .4-.083 1 1 0 0 0 .589-.752l.625-3.751a10.657 10.657 0 0 0 2.939 2.486 1 1 0 0 0 1.4-.579l.488-1.465 2.559 2.558zm0-20.414-2.293-2.293a1 1 0 0 0 -1.656.391l-.585 1.755a16.076 16.076 0 0 1 -2.634-2.994 1 1 0 0 0 -1.818.39l-.708 4.249a11.478 11.478 0 0 1 -2.336-4.328 1 1 0 0 0 -1.417-.651 18.452 18.452 0 0 0 -4.553 3.232v-5.337a3 3 0 0 1 3-3h12a3 3 0 0 1 3 3zm4 7.414a3.006 3.006 0 0 1 -2 2.829v-5.658a3.006 3.006 0 0 1 2 2.829z"/><path d="m48.5 29.55h2v9.899h-2z" transform="matrix(.707 -.707 .707 .707 -9.897 45.107)"/><path d="m8.685 33.5h10.63v2h-10.63z" transform="matrix(.753 -.659 .659 .753 -19.254 17.755)"/><path d="m8.728 27.5h8.544v2h-8.544z" transform="matrix(.936 -.351 .351 .936 -9.177 6.377)"/><path d="m48.5 25.585h2v5.831h-2z" transform="matrix(.514 -.857 .857 .514 -.406 56.283)"/><path d="m54 30.382h2v2.236h-2z" transform="matrix(.447 -.894 .894 .447 2.229 66.606)"/></g></svg>