<svg viewBox="-95 0 512 512" xmlns="http://www.w3.org/2000/svg"><path d="m64.363281 512c-4.144531 0-7.5-3.359375-7.5-7.5v-84.855469c0-4.140625 3.355469-7.5 7.5-7.5 4.140625 0 7.5 3.359375 7.5 7.5v84.855469c0 4.140625-3.359375 7.5-7.5 7.5zm0 0" fill="#aab2b9"/><path d="m78.230469 419.644531h-27.734375c-4.695313 0-8.5-3.804687-8.5-8.5v-50.351562h44.730468v50.351562c0 4.695313-3.804687 8.5-8.496093 8.5zm0 0" fill="#e2ebf9"/><path d="m48.070312 33.652344h32.582032v99.636718h-32.582032zm0 0" fill="#aab2b9"/><path d="m113.488281 387.238281h-98.253906c-4.269531 0-7.734375-3.464843-7.734375-7.734375v-258.902344c0-4.273437 3.464844-7.734374 7.734375-7.734374h98.253906c4.273438 0 7.734375 3.464843 7.734375 7.734374v258.902344c0 4.269532-3.460937 7.734375-7.734375 7.734375zm0 0" fill="#fff"/><path d="m113.488281 112.867188h-41.28125v274.371093h41.28125c4.273438 0 7.734375-3.464843 7.734375-7.734375v-258.902344c0-4.273437-3.460937-7.734374-7.734375-7.734374zm0 0" fill="#e2ebf9"/><path d="m7.5 379.503906c0 4.269532 3.464844 7.734375 7.734375 7.734375h98.253906c4.273438 0 7.734375-3.464843 7.734375-7.734375v-183.441406h-113.722656zm0 0" fill="#ffaa16"/><path d="m72.207031 387.238281h41.28125c4.273438 0 7.734375-3.464843 7.734375-7.734375v-183.441406h-49.015625zm0 0" fill="#ff914d"/><path d="m113.351562 42.949219h-97.980468c-4.347656 0-7.871094-3.523438-7.871094-7.871094v-19.707031c0-4.347656 3.523438-7.871094 7.871094-7.871094h97.980468c4.347657 0 7.871094 3.523438 7.871094 7.871094v19.707031c0 4.347656-3.523437 7.871094-7.871094 7.871094zm0 0" fill="#76ffda"/><path d="m113.351562 7.5h-41.644531v35.449219h41.644531c4.347657 0 7.871094-3.523438 7.871094-7.871094v-19.707031c0-4.347656-3.523437-7.871094-7.871094-7.871094zm0 0" fill="#5de1c0"/><path d="m288.164062 293.613281v-35.378906h-91.90625v35.378906l-17.75 15.980469c-5.222656 4.699219-8.207031 11.394531-8.207031 18.421875v157.570313c0 7.742187 6.277344 14.019531 14.023438 14.019531h115.773437c7.746094 0 14.023438-6.277344 14.023438-14.019531v-157.570313c0-7.027344-2.984375-13.722656-8.207032-18.421875zm0 0" fill="#c1c8d2"/><path d="m305.917969 309.59375-17.75-15.980469v-35.378906h-48.683594v35.378906l24.359375 21.925781c1.015625.917969 1.59375 2.21875 1.59375 3.585938v180.484375h34.660156c7.746094 0 14.023438-6.28125 14.023438-14.023437v-157.570313c0-7.027344-2.980469-13.722656-8.203125-18.421875zm0 0" fill="#aab2b9"/><path d="m288.164062 293.613281h-91.90625l-17.75 15.980469c-5.222656 4.699219-8.207031 11.394531-8.207031 18.421875v157.570313c0 7.742187 6.277344 14.019531 14.023438 14.019531h115.773437c7.746094 0 14.023438-6.277344 14.023438-14.019531v-157.570313c0-7.027344-2.984375-13.722656-8.207032-18.421875zm0 0" fill="#5de1c0"/><path d="m312.902344 320.339844c-.132813-.410156-.277344-.816406-.433594-1.21875-.308594-.800782-.65625-1.585938-1.046875-2.351563s-.820313-1.511719-1.289063-2.234375-.976562-1.425781-1.519531-2.097656c-.816406-1.011719-1.71875-1.960938-2.695312-2.84375l-17.75-15.980469h-48.683594l24.359375 21.929688c1.015625.914062 1.59375 2.214843 1.59375 3.582031v180.484375h34.660156c2.90625 0 5.601563-.882813 7.839844-2.394531 2.238281-1.511719 4.015625-3.652344 5.082031-6.171875.710938-1.675781 1.101563-3.519531 1.101563-5.457031v-157.570313c0-2.636719-.421875-5.222656-1.21875-7.675781zm0 0" fill="#00c395"/><path d="m294.503906 270.746094h-104.585937c-3.683594 0-6.667969-2.984375-6.667969-6.667969v-38.765625c0-3.679688 2.984375-6.667969 6.667969-6.667969h104.585937c3.683594 0 6.667969 2.988281 6.667969 6.667969v38.765625c0 3.683594-2.984375 6.667969-6.667969 6.667969zm0 0" fill="#ffaa16"/><path d="m294.503906 218.644531h-42.347656v52.101563h42.347656c3.683594 0 6.667969-2.984375 6.667969-6.667969v-38.765625c0-3.679688-2.984375-6.667969-6.667969-6.667969zm0 0" fill="#ff914d"/><path d="m243.984375 459.070312h-73.683594v-106.707031h73.683594c3.207031 0 5.804687 2.597657 5.804687 5.804688v95.097656c0 3.207031-2.597656 5.804687-5.804687 5.804687zm0 0" fill="#fff"/><path d="m243.984375 352.363281h-43.210937v106.707031h43.210937c3.207031 0 5.804687-2.597656 5.804687-5.804687v-95.097656c0-3.207031-2.597656-5.804688-5.804687-5.804688zm0 0" fill="#e2ebf9"/><path d="m39.097656 177.554688h-31.597656c-4.140625 0-7.5-3.359376-7.5-7.5 0-4.140626 3.359375-7.5 7.5-7.5h31.597656c4.144532 0 7.5 3.359374 7.5 7.5 0 4.140624-3.355468 7.5-7.5 7.5zm0 0" fill="#c1c8d2"/><g fill="#ff8125"><path d="m29.09375 231.128906h-21.59375c-4.140625 0-7.5-3.359375-7.5-7.5 0-4.144531 3.359375-7.5 7.5-7.5h21.59375c4.144531 0 7.5 3.355469 7.5 7.5 0 4.140625-3.355469 7.5-7.5 7.5zm0 0"/><path d="m39.097656 284.703125h-31.597656c-4.140625 0-7.5-3.359375-7.5-7.5 0-4.144531 3.359375-7.5 7.5-7.5h31.597656c4.144532 0 7.5 3.355469 7.5 7.5 0 4.140625-3.355468 7.5-7.5 7.5zm0 0"/><path d="m29.09375 338.273438h-21.59375c-4.140625 0-7.5-3.355469-7.5-7.5 0-4.140626 3.359375-7.5 7.5-7.5h21.59375c4.144531 0 7.5 3.359374 7.5 7.5 0 4.144531-3.355469 7.5-7.5 7.5zm0 0"/></g><path d="m113.351562 0h-97.980468c-8.476563 0-15.371094 6.894531-15.371094 15.371094v19.707031c0 8.476563 6.894531 15.371094 15.371094 15.371094h25.199218v54.917969h-25.335937c-8.398437 0-15.234375 6.832031-15.234375 15.234374v258.898438c0 8.402344 6.835938 15.234375 15.234375 15.234375h19.261719v16.410156c0 8.820313 7.175781 16 16 16h27.734375c8.820312 0 16-7.175781 16-16v-16.410156h19.257812c8.402344 0 15.234375-6.832031 15.234375-15.234375v-206.195312c0-4.140626-3.355468-7.5-7.5-7.5-4.140625 0-7.5 3.359374-7.5 7.5v206.199218c0 .128906-.105468.234375-.234375.234375h-98.25c-.132812 0-.238281-.105469-.238281-.234375v-258.902344c0-.128906.105469-.234374.238281-.234374h98.25c.128907 0 .234375.105468.234375.234374v16.859376c0 4.140624 3.359375 7.5 7.5 7.5 4.144532 0 7.5-3.359376 7.5-7.5v-16.859376c0-8.398437-6.832031-15.234374-15.234375-15.234374h-25.335937v-54.917969h25.203125c8.472656 0 15.367187-6.894531 15.367187-15.371094v-19.707031c0-8.476563-6.894531-15.371094-15.371094-15.371094zm-34.125 411.144531c0 .550781-.449218 1-1 1h-27.734374c-.550782 0-1-.445312-1-1v-16.40625h29.734374zm-6.074218-305.777343h-17.582032v-54.917969h17.582032zm40.570312-70.289063c0 .203125-.164062.371094-.367187.371094h-97.984375c-.207032 0-.371094-.167969-.371094-.371094v-19.707031c0-.207032.164062-.371094.371094-.371094h97.980468c.207032 0 .371094.164062.371094.371094zm0 0" fill="#434c54"/><path d="m310.933594 304.019531-15.269532-13.746093v-12.085938c7.269532-.59375 13.007813-6.6875 13.007813-14.105469v-38.769531c0-7.8125-6.355469-14.167969-14.167969-14.167969h-104.585937c-7.8125 0-14.167969 6.355469-14.167969 14.167969v38.769531c0 7.417969 5.738281 13.511719 13.007812 14.105469v12.085938l-15.269531 13.746093c-6.792969 6.113281-10.6875 14.859375-10.6875 23.996094v157.570313c0 11.867187 9.65625 21.519531 21.523438 21.519531h115.773437c11.867188 0 21.519532-9.652344 21.519532-21.519531v-157.570313c.003906-9.136719-3.890626-17.882813-10.683594-23.996094zm-107.175782-17.90625v-7.867187h76.90625v7.867187zm-13.007812-59.96875h102.921875v37.101563h-102.921875zm115.871094 259.441407c0 3.59375-2.925782 6.519531-6.523438 6.519531h-115.773437c-3.597657 0-6.523438-2.925781-6.523438-6.519531v-157.570313c0-4.894531 2.085938-9.578125 5.722657-12.851563l15.613281-14.050781h86.152343l15.609376 14.050781c3.636718 3.273438 5.722656 7.957032 5.722656 12.851563zm0 0" fill="#434c54"/></svg>