<?xml version="1.0" encoding="iso-8859-1"?>
<!-- Generator: Adobe Illustrator 19.0.0, SVG Export Plug-In . SVG Version: 6.00 Build 0)  -->
<svg version="1.1" id="Capa_1" xmlns="http://www.w3.org/2000/svg" xmlns:xlink="http://www.w3.org/1999/xlink" x="0px" y="0px"
	 viewBox="0 0 512 512" style="enable-background:new 0 0 512 512;" xml:space="preserve">
<path style="fill:#E6E7E8;" d="M475.755,62.431L475.755,62.431c-139.498-64.071-300.012-64.071-439.51,0l0,0
	c-16.529,7.592-23.964,27-16.737,43.692l53.09,122.627c4.605,10.636,15.087,17.52,26.677,17.52h313.452
	c11.59,0,22.072-6.884,26.677-17.52l53.09-122.627C499.719,89.431,492.284,70.023,475.755,62.431z"/>
<path style="fill:#52B4DE;" d="M50.329,177.315l22.268,51.435c4.605,10.636,15.087,17.52,26.677,17.52h313.452
	c11.59,0,22.072-6.884,26.677-17.52l22.268-51.435H50.329z"/>
<path style="fill:#E6E7E8;" d="M404.301,484.051L404.301,484.051c-98.033,18.169-198.57,18.169-296.603,0l0,0
	c-8.703-1.613-15.018-9.205-15.018-18.056v-101.28c0-11.483,10.42-20.149,21.711-18.057l0,0c93.608,17.349,189.608,17.349,283.217,0
	l0,0c11.29-2.092,21.711,6.574,21.711,18.057v101.28C419.319,474.846,413.005,482.438,404.301,484.051z"/>
<g style="opacity:0.1;">
	<path d="M179.015,414.828c-0.216,0-0.434-0.009-0.652-0.027c-11.586-0.998-44.447-8.914-54.33-12.373
		c-3.91-1.369-5.97-5.648-4.602-9.557c1.369-3.91,5.649-5.973,9.557-4.602c9.666,3.384,41.063,10.76,50.662,11.586
		c4.127,0.355,7.185,3.989,6.829,8.116C186.142,411.88,182.865,414.828,179.015,414.828z"/>
	<path d="M179.011,458.894c-0.096,0-0.19-0.002-0.287-0.005c-11.016-0.415-28.468-5.095-35.143-7.598
		c-3.878-1.454-5.843-5.777-4.389-9.656s5.775-5.845,9.656-4.389c5.754,2.158,21.683,6.323,30.439,6.652
		c4.14,0.156,7.368,3.638,7.213,7.777C186.349,455.719,183.023,458.894,179.011,458.894z"/>
	<path d="M336.088,418.769c-4.143,0-7.5-3.357-7.5-7.5s3.357-7.5,7.5-7.5c5.224,0,31.742-3.259,48.957-12.485
		c3.653-1.958,8.196-0.583,10.153,3.067c1.957,3.65,0.583,8.196-3.067,10.153C371.89,415.353,342.577,418.769,336.088,418.769z"/>
	<path d="M318.208,461.093c-4.143,0-7.5-3.357-7.5-7.5c0-4.142,3.357-7.5,7.5-7.5c14.923,0,28.736-1.484,38.895-4.181
		c4.004-1.061,8.11,1.321,9.173,5.325c1.063,4.004-1.322,8.11-5.325,9.173C349.572,459.43,334.393,461.093,318.208,461.093z"/>
</g>
<path style="fill:#E15F76;" d="M276.847,70.896V50.559c0-4.329-3.509-7.837-7.837-7.837h-26.019c-4.328,0-7.837,3.509-7.837,7.837
	v20.337c0,1.96-1.589,3.549-3.549,3.549h-20.337c-4.328,0-7.837,3.509-7.837,7.837v26.019c0,4.328,3.509,7.837,7.837,7.837h20.337
	c1.96,0,3.549,1.589,3.549,3.549v20.337c0,4.328,3.509,7.837,7.837,7.837h26.019c4.328,0,7.837-3.509,7.837-7.837v-20.337
	c0-1.96,1.589-3.549,3.549-3.549h20.337c4.328,0,7.837-3.509,7.837-7.837V82.282c0-4.328-3.509-7.837-7.837-7.837h-20.337
	C278.435,74.445,276.847,72.856,276.847,70.896z"/>
<path style="opacity:0.1;enable-background:new    ;" d="M186.394,19c-51.4,6.853-102.025,21.328-150.149,43.431l0,0
	c-16.529,7.592-23.964,27-16.737,43.692l53.09,122.627c4.605,10.636,15.087,17.52,26.677,17.52h129.628
	C180.08,197.907,160.022,54.097,186.394,19z"/>
<path style="opacity:0.1;enable-background:new    ;" d="M171.814,429.661c-7.866-25.716-1.932-51.908,7.703-73.776
	c-21.796-2.156-43.525-5.223-65.125-9.226l0,0c-11.291-2.093-21.71,6.574-21.71,18.057v101.28c0,8.852,6.314,16.444,15.018,18.056
	l0,0c23.705,4.393,47.558,7.714,71.485,9.983C170.512,476.658,181.063,459.898,171.814,429.661z"/>
<path d="M280.494,205.829c-3.123-2.724-7.861-2.398-10.582,0.725c-3.514,4.03-8.584,6.342-13.912,6.342s-10.398-2.312-13.912-6.342
	c-2.721-3.122-7.458-3.448-10.582-0.725c-3.122,2.722-3.446,7.459-0.725,10.582c6.362,7.298,15.554,11.484,25.219,11.484
	c9.665,0,18.856-4.187,25.219-11.484C283.94,213.288,283.616,208.551,280.494,205.829z M181.791,191.117c-4.143,0-7.5,3.357-7.5,7.5
	v12.318c0,4.143,3.357,7.5,7.5,7.5s7.5-3.357,7.5-7.5v-12.318C189.291,194.475,185.934,191.117,181.791,191.117z M493.418,362.415
	c-11.811-9.035-26.815-11.988-41.166-8.102l-25.671,6.952c-0.854-6.392-4.055-12.252-9.087-16.437
	c-5.927-4.929-13.677-6.951-21.252-5.545c-93.059,17.246-187.427,17.246-280.483,0c-7.581-1.404-15.326,0.616-21.253,5.545
	c-5.032,4.185-8.233,10.045-9.087,16.437l-25.671-6.952c-14.354-3.888-29.357-0.934-41.166,8.102C6.773,371.452,0,385.162,0,400.032
	c0,21.341,14.386,40.141,34.983,45.719l50.197,13.596v6.648c0,12.464,8.896,23.159,21.151,25.431
	c8.052,1.493,16.241,2.884,24.341,4.134c4.087,0.63,7.924-2.174,8.557-6.268c0.632-4.094-2.174-7.925-6.268-8.557
	c-7.95-1.227-15.99-2.593-23.896-4.058c-5.148-0.955-8.885-5.447-8.885-10.683V364.715c0-3.238,1.428-6.282,3.917-8.353
	c2.489-2.07,5.746-2.914,8.927-2.329c94.873,17.584,191.078,17.584,285.951,0c3.182-0.591,6.438,0.259,8.927,2.329
	c2.489,2.071,3.917,5.115,3.917,8.353v101.279c0,5.235-3.737,9.728-8.885,10.683c-74.631,13.831-150.771,17.058-226.306,9.584
	c-4.124-0.398-7.794,2.604-8.202,6.726c-0.407,4.122,2.604,7.794,6.725,8.202c26.912,2.662,53.896,3.991,80.866,3.99
	c50.137,0,100.221-4.593,149.65-13.754c12.255-2.272,21.15-12.967,21.15-25.431v-6.648l50.196-13.596
	C497.614,440.173,512,421.373,512,400.032C512,385.162,505.227,371.452,493.418,362.415z M85.181,443.806l-46.276-12.533
	C24.83,427.461,15,414.614,15,400.032c0-10.16,4.628-19.529,12.697-25.704c8.07-6.174,18.322-8.192,28.129-5.536l29.355,7.95
	V443.806z M473.095,431.272l-46.275,12.533v-67.064l29.354-7.95c9.809-2.655,20.059-0.638,28.129,5.536
	c8.069,6.175,12.697,15.544,12.697,25.704C497,414.614,487.17,427.461,473.095,431.272z M43.408,180.204
	c0.01,0.024,0.021,0.048,0.031,0.072l22.276,51.454c5.797,13.389,18.97,22.04,33.56,22.04h313.451c14.59,0,27.763-8.651,33.56-22.04
	l22.276-51.453c0.01-0.025,0.021-0.049,0.032-0.074l30.782-71.1c8.776-20.272-0.415-44.268-20.49-53.487
	c-141.646-65.059-304.123-65.059-445.77,0c-20.075,9.22-29.267,33.215-20.49,53.487L43.408,180.204z M39.375,69.246
	C108.209,37.631,182.105,21.823,256,21.823s147.791,15.808,216.625,47.423c12.722,5.843,18.547,21.05,12.984,33.897l-28.864,66.671
	h-30.191c-4.143,0-7.5,3.357-7.5,7.5s3.357,7.5,7.5,7.5h23.697l-17.732,40.956c-3.419,7.896-11.188,12.999-19.794,12.999H99.274
	c-8.605,0-16.375-5.103-19.794-12.999l-17.731-40.956h315.313c4.143,0,7.5-3.357,7.5-7.5s-3.357-7.5-7.5-7.5H55.255l-28.864-66.671
	C20.828,90.296,26.653,75.089,39.375,69.246z M330.209,191.117c-4.143,0-7.5,3.357-7.5,7.5v12.318c0,4.143,3.357,7.5,7.5,7.5
	s7.5-3.357,7.5-7.5v-12.318C337.709,194.475,334.352,191.117,330.209,191.117z"/>
<g>
</g>
<g>
</g>
<g>
</g>
<g>
</g>
<g>
</g>
<g>
</g>
<g>
</g>
<g>
</g>
<g>
</g>
<g>
</g>
<g>
</g>
<g>
</g>
<g>
</g>
<g>
</g>
<g>
</g>
</svg>
