<?xml version="1.0" standalone="no"?><svg xmlns="http://www.w3.org/2000/svg" viewBox="0 0 1440 320"><path fill="#324774" fill-opacity="1" d="M0,64L34.3,90.7C68.6,117,137,171,206,170.7C274.3,171,343,117,411,101.3C480,85,549,107,617,138.7C685.7,171,754,213,823,218.7C891.4,224,960,192,1029,160C1097.1,128,1166,96,1234,117.3C1302.9,139,1371,213,1406,250.7L1440,288L1440,320L1405.7,320C1371.4,320,1303,320,1234,320C1165.7,320,1097,320,1029,320C960,320,891,320,823,320C754.3,320,686,320,617,320C548.6,320,480,320,411,320C342.9,320,274,320,206,320C137.1,320,69,320,34,320L0,320Z"></path></svg>